<?xml version="1.0" standalone="no"?>
<!DOCTYPE svg PUBLIC "-//W3C//DTD SVG 20010904//EN"
 "http://www.w3.org/TR/2001/REC-SVG-20010904/DTD/svg10.dtd">
<svg version="1.0" xmlns="http://www.w3.org/2000/svg"
 width="1416.000000pt" height="664.000000pt" viewBox="0 0 1416.000000 664.000000"
 preserveAspectRatio="xMidYMid meet">

<g transform="translate(0.000000,664.000000) scale(0.100000,-0.100000)"
fill="#000000" stroke="none">
<path d="M3342 4908 l3 -1073 27 -57 c34 -74 112 -152 186 -186 l57 -27 760 0
760 0 3 123 3 122 -715 0 c-680 0 -716 1 -759 19 -79 34 -77 17 -77 671 l0
570 773 2 772 3 0 125 0 125 -772 3 -773 2 0 325 0 325 -125 0 -125 0 2 -1072z"/>
<path d="M1555 5320 c-127 -20 -227 -98 -290 -225 -18 -36 -20 -61 -20 -270 0
-229 0 -230 27 -287 34 -74 112 -152 186 -186 l57 -27 580 -5 c515 -4 584 -7
617 -22 57 -26 68 -63 68 -235 0 -123 -3 -149 -20 -182 -36 -72 -31 -71 -624
-71 -496 0 -527 1 -570 19 -39 17 -47 26 -63 70 l-18 51 -124 0 -124 0 7 -61
c14 -124 96 -237 212 -295 l59 -29 620 0 620 0 58 27 c74 35 160 121 195 195
26 57 26 62 27 268 0 199 -1 213 -24 274 -31 82 -114 170 -198 209 l-58 27
-585 5 c-654 6 -634 4 -663 74 -25 59 -24 293 0 353 32 75 12 73 628 73 482 0
548 -2 578 -16 35 -17 67 -67 67 -105 0 -19 6 -19 128 -17 l127 3 -3 55 c-7
113 -92 239 -200 294 -27 14 -78 30 -113 36 -74 12 -1087 12 -1164 0z"/>
<path d="M3890 4370 l0 -80 1834 0 c1105 0 1844 -4 1859 -9 14 -6 29 -23 36
-42 8 -22 11 -232 11 -700 l0 -669 75 0 75 0 0 691 c0 489 -3 703 -11 730 -16
50 -61 105 -112 132 l-42 22 -1862 3 -1863 2 0 -80z"/>
<path d="M1240 3135 l0 -125 709 0 c681 0 711 -1 755 -19 70 -31 76 -54 76
-292 l0 -199 -770 0 -770 0 0 -344 c0 -310 2 -350 19 -405 42 -136 152 -229
298 -251 44 -7 320 -9 773 -8 l705 3 0 740 0 740 -29 58 c-43 85 -106 151
-184 189 l-67 33 -757 3 -758 3 0 -126z m1540 -1135 l0 -250 -590 0 c-672 0
-655 -2 -684 73 -13 34 -16 82 -16 235 l0 192 645 0 645 0 0 -250z"/>
<path d="M3340 2050 l0 -1210 125 0 125 0 0 325 0 325 583 0 c321 0 608 4 640
10 130 21 234 99 290 218 l32 67 3 544 c2 317 -1 569 -6 605 -6 34 -20 84 -33
112 -31 66 -116 149 -186 182 l-58 27 -757 3 -758 3 0 -1211z m1468 940 c33
-15 47 -29 62 -62 19 -41 20 -69 20 -549 0 -489 -1 -508 -21 -553 -34 -78 -15
-76 -627 -76 -615 0 -607 -1 -636 74 -14 36 -16 108 -16 551 0 584 0 582 74
615 38 17 82 19 571 19 504 1 532 0 573 -19z"/>
<path d="M9240 2474 c0 -561 3 -798 11 -825 16 -51 62 -105 112 -132 39 -20
59 -22 265 -25 l222 -4 0 81 0 81 -192 0 c-106 0 -203 3 -216 6 -49 14 -52 36
-52 409 l0 345 230 0 230 0 0 80 0 80 -230 0 -230 0 0 345 0 345 -75 0 -75 0
0 -786z"/>
<path d="M5621 2559 c-59 -11 -115 -50 -148 -101 -27 -40 -28 -48 -31 -182 -3
-109 0 -149 12 -177 22 -52 62 -96 110 -122 40 -21 54 -22 401 -27 198 -3 367
-9 377 -13 23 -12 28 -38 28 -145 0 -85 -2 -95 -25 -117 l-24 -25 -330 0
c-194 0 -340 4 -356 10 -15 6 -30 22 -36 40 -11 30 -12 30 -85 30 l-74 0 0
-29 c0 -65 47 -137 118 -179 l47 -27 370 0 c393 0 401 1 468 49 16 12 41 41
55 66 26 43 27 51 27 190 0 160 -5 179 -67 240 -64 64 -67 64 -465 70 -428 6
-396 -4 -402 126 -4 98 2 127 29 154 19 19 35 20 355 20 228 0 342 -4 359 -11
15 -7 28 -23 31 -40 7 -29 7 -29 86 -29 89 0 87 -2 64 77 -9 30 -29 65 -52 88
-68 70 -68 70 -453 72 -190 1 -365 -3 -389 -8z"/>
<path d="M8155 2561 c-75 -13 -132 -58 -171 -131 -16 -29 -19 -57 -19 -170 1
-154 12 -188 83 -252 59 -53 97 -58 473 -58 l330 0 25 -25 c25 -25 26 -30 22
-131 -5 -155 26 -144 -390 -144 l-339 0 -24 25 c-14 13 -25 31 -25 40 0 12
-14 15 -78 15 l-79 0 7 -42 c12 -77 55 -134 130 -174 32 -18 63 -19 410 -19
366 0 376 1 416 22 106 57 140 140 131 319 -5 109 -22 156 -73 208 -59 59 -66
60 -462 66 l-364 5 -20 25 c-17 21 -19 36 -16 128 5 153 -24 142 378 142 197
0 339 -4 355 -10 15 -6 32 -23 38 -40 11 -30 12 -30 89 -30 l77 0 -6 38 c-8
49 -28 90 -67 130 -61 66 -64 66 -446 68 -190 1 -363 -1 -385 -5z"/>
<path d="M10180 2561 c-78 -18 -117 -46 -160 -116 l-25 -40 -3 -348 c-4 -396
0 -425 64 -491 70 -72 57 -71 567 -74 l457 -3 0 80 0 81 -435 0 c-303 0 -442
3 -459 11 -36 17 -46 57 -46 180 l0 109 470 0 470 0 0 219 c0 231 -4 255 -50
314 -12 15 -43 39 -68 55 l-47 27 -350 2 c-192 1 -366 -2 -385 -6z m698 -157
c40 -11 52 -52 52 -179 l0 -115 -395 0 -395 0 0 109 c0 116 15 176 47 184 27
7 665 8 691 1z"/>
<path d="M11272 2033 l3 -538 78 -3 77 -3 0 436 0 436 25 24 24 25 236 0 c218
0 259 -4 285 -27 3 -3 7 -203 10 -446 l5 -442 78 -3 77 -3 0 426 c0 448 2 472
45 489 30 11 472 7 498 -5 14 -6 30 -22 36 -36 7 -16 11 -159 11 -448 l0 -425
75 0 76 0 -3 458 -3 457 -28 48 c-35 58 -86 93 -156 107 -33 6 -321 10 -752
10 l-699 0 2 -537z"/>
<path d="M6692 2108 c3 -409 5 -456 21 -485 25 -47 85 -101 126 -115 25 -8
156 -13 414 -15 l377 -4 0 -206 c0 -232 -6 -266 -53 -283 -18 -6 -159 -10
-358 -10 l-329 0 0 -75 0 -75 360 0 c260 0 367 3 387 12 53 23 92 60 118 111
l25 51 0 773 0 773 -75 0 -75 0 0 -414 c0 -440 -3 -470 -47 -487 -36 -14 -666
-12 -697 2 -14 7 -30 25 -36 42 -6 19 -10 181 -10 443 l0 414 -75 0 -76 0 3
-452z"/>
<path d="M3890 915 l0 -75 1350 0 1350 0 0 75 0 75 -1350 0 -1350 0 0 -75z"/>
</g>
</svg>
